<svg width="597" height="662" viewBox="0 0 597 662" fill="none" xmlns="http://www.w3.org/2000/svg">
<path d="M95.85 211.546C95.85 163.587 95.85 115.622 95.85 67.6518C95.85 48.7966 108.674 34.9672 126.106 35.0001C143.539 35.0329 156.494 48.9116 156.478 67.5861C156.478 160.439 156.478 253.292 156.478 346.144C156.56 404.09 200.759 457.83 259.955 472.612C286.603 479.144 314.604 477.518 340.312 467.947C366.021 458.377 388.246 441.305 404.092 418.954C415.401 403.055 412.85 383.362 398.067 372.538C382.923 361.468 363.498 365.115 351.498 381.079C332.863 406.011 307.957 416.441 277.421 410.035C248.432 403.942 230.193 385.399 222.933 356.771C214.867 324.99 230.719 291.763 260.416 276.833C274.781 269.645 291.152 267.486 306.896 270.704C322.64 273.921 336.841 282.328 347.218 294.572C349.193 296.937 350.922 299.499 352.848 301.897C358.017 308.397 365.486 312.675 373.718 313.851C381.951 315.027 390.323 313.012 397.113 308.22C411.22 298.366 415.418 278.853 405.59 264.581C382.758 231.387 351.103 211.809 311.134 205.913C288.01 202.552 264.406 205.333 242.703 213.977C224.118 221.171 209.517 211.842 208.134 191.771C206.9 173.097 219.229 157.066 239.642 151.843C303.019 135.6 362 145.684 413.097 186.565C477.807 238.351 502.401 307.054 482.663 387.14C462.926 467.225 409.261 516.893 327.826 532.857C219.18 554.012 116.196 480.48 98.3686 370.994C96.8193 361.375 96.0158 351.65 95.9652 341.907C95.7182 298.448 95.85 255.005 95.85 211.546Z" fill="url(#paint0_linear_864_5775)"/>
<path d="M108.5 612.435C108.5 622.734 100.733 629 93.0915 629C86.7543 629 82.6538 625.402 80.0443 621.431V628.256H77V582.966H80.0443V603.688C82.778 599.531 86.8165 595.871 93.0915 595.871C100.733 595.871 108.5 602.013 108.5 612.311V612.435ZM105.207 612.559V612.435C105.207 604.122 99.4287 598.787 92.7809 598.787C86.1952 598.787 79.858 604.308 79.858 612.373V612.497C79.858 620.625 86.1952 626.084 92.7809 626.084C99.6772 626.084 105.207 621.059 105.207 612.559Z" fill="white"/>
<path d="M142.743 628.256H139.76V622.982C137.586 626.022 133.672 629 127.645 629C121.743 629 115.406 625.65 115.406 619.074V618.95C115.406 612.373 121.059 608.651 129.261 608.651C133.672 608.651 136.716 609.209 139.76 610.016V608.651C139.76 602.261 135.846 598.973 129.323 598.973C125.471 598.973 122.302 600.027 119.382 601.516L118.264 598.849C121.743 597.236 125.16 596.119 129.509 596.119C137.648 596.119 142.743 600.338 142.743 608.527V628.256ZM139.823 616.406V612.808C137.151 612.125 133.61 611.381 129.074 611.381C122.364 611.381 118.636 614.359 118.636 618.763V618.888C118.636 623.478 122.985 626.146 127.832 626.146C134.293 626.146 139.823 622.176 139.823 616.406Z" fill="white"/>
<path d="M174.877 619.632C174.877 625.278 170.031 628.876 163.942 628.876C159.345 628.876 154.312 627.015 150.957 624.285L152.759 621.865C156.238 624.533 160.09 626.022 164.129 626.022C168.416 626.022 171.771 623.665 171.771 620.004V619.88C171.771 616.158 167.794 614.793 163.383 613.552C158.226 612.063 152.511 610.512 152.511 604.867V604.742C152.511 599.655 156.798 595.995 162.948 595.995C166.738 595.995 171.025 597.36 174.194 599.469L172.578 602.013C169.658 600.089 166.179 598.849 162.824 598.849C158.475 598.849 155.617 601.206 155.617 604.37V604.494C155.617 608.031 159.904 609.333 164.439 610.636C169.534 612.063 174.877 613.924 174.877 619.508V619.632Z" fill="white"/>
<path d="M211.476 622.734C208.245 626.394 204.393 629 198.553 629C189.42 629 182.399 621.431 182.399 612.559V612.435C182.399 603.564 189.482 595.871 198.553 595.871C204.517 595.871 208.245 598.601 211.227 601.702L209.053 603.936C206.319 601.144 203.213 598.725 198.491 598.725C191.284 598.725 185.692 604.742 185.692 612.311V612.435C185.692 620.066 191.47 626.146 198.739 626.146C203.213 626.146 206.692 623.851 209.363 620.873L211.476 622.734Z" fill="white"/>
<path d="M249.539 612.435C249.539 621.307 242.642 629 233.199 629C223.817 629 216.983 621.431 216.983 612.559V612.435C216.983 603.564 223.879 595.871 233.323 595.871C242.705 595.871 249.539 603.44 249.539 612.311V612.435ZM246.246 612.559V612.435C246.246 604.805 240.53 598.725 233.199 598.725C225.681 598.725 220.276 604.867 220.276 612.311V612.435C220.276 620.066 225.992 626.146 233.323 626.146C240.841 626.146 246.246 620.004 246.246 612.559Z" fill="white"/>
<path d="M304.427 622.734C301.197 626.394 297.344 629 291.504 629C282.371 629 275.351 621.431 275.351 612.559V612.435C275.351 603.564 282.433 595.871 291.504 595.871C297.469 595.871 301.197 598.601 304.179 601.702L302.004 603.936C299.271 601.144 296.164 598.725 291.442 598.725C284.235 598.725 278.644 604.742 278.644 612.311V612.435C278.644 620.066 284.422 626.146 291.691 626.146C296.164 626.146 299.643 623.851 302.315 620.873L304.427 622.734Z" fill="white"/>
<path d="M330.105 599.469H329.794C322.463 599.469 316.063 604.991 316.063 615.289V628.256H313.019V596.615H316.063V605.611C318.549 599.965 323.83 595.871 330.105 596.119V599.469Z" fill="white"/>
<path d="M337.374 613.676C337.933 621.555 343.587 626.146 349.8 626.146C354.708 626.146 358.063 623.975 360.672 621.183L362.785 623.044C359.554 626.518 355.764 629 349.675 629C341.35 629 334.143 622.362 334.143 612.497V612.373C334.143 603.191 340.605 595.871 349.178 595.871C358.063 595.871 363.717 603.067 363.717 612.435V612.559C363.717 612.994 363.717 613.18 363.655 613.676H337.374ZM337.374 610.946H360.424C359.989 604.556 356.323 598.663 349.054 598.663C342.779 598.663 337.933 603.936 337.374 610.946Z" fill="white"/>
<path d="M397.328 628.256H394.346V622.982C392.171 626.022 388.257 629 382.23 629C376.328 629 369.991 625.65 369.991 619.074V618.95C369.991 612.373 375.645 608.651 383.846 608.651C388.257 608.651 391.301 609.209 394.346 610.016V608.651C394.346 602.261 390.431 598.973 383.908 598.973C380.056 598.973 376.887 600.027 373.967 601.516L372.849 598.849C376.328 597.236 379.745 596.119 384.094 596.119C392.233 596.119 397.328 600.338 397.328 608.527V628.256ZM394.408 616.406V612.808C391.736 612.125 388.195 611.381 383.659 611.381C376.949 611.381 373.222 614.359 373.222 618.763V618.888C373.222 623.478 377.571 626.146 382.417 626.146C388.878 626.146 394.408 622.176 394.408 616.406Z" fill="white"/>
<path d="M423.692 627.697C422.076 628.442 420.523 628.814 418.535 628.814C413.627 628.814 409.65 626.146 409.65 620.128V599.407H405.053V596.615H409.65V586.503H412.695V596.615H423.816V599.407H412.695V619.818C412.695 624.347 415.366 625.96 419.032 625.96C420.585 625.96 421.89 625.65 423.692 624.843V627.697Z" fill="white"/>
<path d="M436.701 588.364H432.911V584.207H436.701V588.364ZM436.328 628.256H433.284V596.615H436.328V628.256Z" fill="white"/>
<path d="M476.154 596.615L461.927 628.504H459.317L445.09 596.615H448.631L460.622 624.843L472.737 596.615H476.154Z" fill="white"/>
<path d="M483.657 613.676C484.216 621.555 489.87 626.146 496.083 626.146C500.991 626.146 504.346 623.975 506.956 621.183L509.068 623.044C505.837 626.518 502.047 629 495.959 629C487.633 629 480.426 622.362 480.426 612.497V612.373C480.426 603.191 486.888 595.871 495.462 595.871C504.346 595.871 510 603.067 510 612.435V612.559C510 612.994 510 613.18 509.938 613.676H483.657ZM483.657 610.946H506.707C506.272 604.556 502.607 598.663 495.337 598.663C489.062 598.663 484.216 603.936 483.657 610.946Z" fill="white"/>
<defs>
<linearGradient id="paint0_linear_864_5775" x1="165.551" y1="80.9403" x2="541.753" y2="542.255" gradientUnits="userSpaceOnUse">
<stop stop-color="#5F61DB"/>
<stop offset="1" stop-color="#320D83"/>
</linearGradient>
</defs>
</svg>
